<?xml version="1.0" encoding="UTF-8" standalone="no"?>
<!-- Created with Inkscape (http://www.inkscape.org/) -->

<svg
   xmlns:dc="http://purl.org/dc/elements/1.1/"
   xmlns:cc="http://creativecommons.org/ns#"
   xmlns:rdf="http://www.w3.org/1999/02/22-rdf-syntax-ns#"
   xmlns:svg="http://www.w3.org/2000/svg"
   xmlns="http://www.w3.org/2000/svg"
   xmlns:sodipodi="http://sodipodi.sourceforge.net/DTD/sodipodi-0.dtd"
   xmlns:inkscape="http://www.inkscape.org/namespaces/inkscape"
   width="440"
   height="250"
   viewBox="0 0 116.41667 66.145835"
   version="1.1"
   id="svg8"
   inkscape:version="0.92.1 r"
   sodipodi:docname="logo.svg">
  <defs
     id="defs2" />
  <sodipodi:namedview
     id="base"
     pagecolor="#ffffff"
     bordercolor="#666666"
     borderopacity="1.0"
     inkscape:pageopacity="0.0"
     inkscape:pageshadow="2"
     inkscape:zoom="0.98994949"
     inkscape:cx="159.25094"
     inkscape:cy="351.35298"
     inkscape:document-units="mm"
     inkscape:current-layer="layer2"
     showgrid="false"
     inkscape:window-width="1920"
     inkscape:window-height="1025"
     inkscape:window-x="0"
     inkscape:window-y="27"
     inkscape:window-maximized="1"
     inkscape:pagecheckerboard="false"
     showborder="true"
     borderlayer="true"
     units="px" />
  <metadata
     id="metadata5">
    <rdf:RDF>
      <cc:Work
         rdf:about="">
        <dc:format>image/svg+xml</dc:format>
        <dc:type
           rdf:resource="http://purl.org/dc/dcmitype/StillImage" />
        <dc:title></dc:title>
      </cc:Work>
    </rdf:RDF>
  </metadata>
  <g
     inkscape:groupmode="layer"
     id="layer2"
     inkscape:label="Layer 2"
     style="display:inline"
     transform="translate(0,-230.85383)">
    <g
       id="g4808"
       transform="translate(-8.6862595,156.0854)"
       style="fill:#2d51a3;fill-opacity:0.99607843">
      <g
         transform="translate(0.93544335,-1.6036172)"
         id="g4781"
         style="fill:#2d51a3;fill-opacity:0.99607843">
        <path
           inkscape:connector-curvature="0"
           d="m 43.226691,120.7173 c 4.117914,-1.24978 8.416159,-5.22157 8.416159,-7.77694 0,-1.8551 -1.195162,-2.62909 -5.292743,-3.42761 l -3.579174,-0.6975 -1.384875,0.95972 -1.384875,0.95972 v 5.24369 c 0,5.97638 -0.145838,5.76212 3.225508,4.73892 z m -2.365129,2.06711 c -3.222092,-0.66286 -4.998054,-1.51642 -6.130717,-2.94652 -1.667345,-2.1052 -1.980145,-3.02828 -1.351366,-3.98792 0.753236,-1.14958 4.030916,-2.65147 4.582575,-2.09981 0.31995,0.31995 0.202078,0.41635 -0.509082,0.41635 -0.508988,0 -1.413863,0.41099 -2.010833,0.91331 -0.892947,0.75136 -1.084973,1.17359 -1.08299,2.38125 0.0021,1.26331 0.161903,1.57358 1.146528,2.22569 0.629264,0.41676 1.490488,0.86059 1.913831,0.98628 0.693828,0.20601 0.794212,0.0652 1.018217,-1.42861 0.136678,-0.91143 0.266557,-3.39941 0.28862,-5.52884 0.04223,-4.07607 0.05629,-4.03774 -1.723773,-4.69926 -0.587617,-0.21838 -0.499163,-0.29634 0.529167,-0.46643 l 1.234722,-0.20422 0.104427,-2.81143 c 0.09605,-2.586 0.369548,-3.33945 1.218489,-3.35678 0.145521,-0.003 0.264584,1.23814 0.264584,2.75803 0,1.51988 0.08611,2.84953 0.19135,2.95477 0.334441,0.33444 5.019125,-0.71126 6.049973,-1.35046 1.901338,-1.17896 3.298663,-2.7605 3.675539,-4.16011 0.315605,-1.17207 0.285623,-1.47234 -0.181085,-1.81361 -1.28373,-0.938685 -7.556788,-0.873722 -14.176627,0.14681 -2.572448,0.39658 -5.649869,1.87394 -5.963786,2.86301 -0.347863,1.09601 -1.309229,0.77854 -1.730128,-0.57136 -0.185821,-0.59595 0.0457,-0.97538 1.09898,-1.80103 2.088035,-1.636801 2.943576,-1.970711 5.21495,-2.035357 1.164167,-0.03313 3.069167,-0.243014 4.233334,-0.466403 2.679097,-0.514082 8.684651,-0.481054 10.748881,0.05912 4.275266,1.11875 2.792314,5.91251 -2.584012,8.35301 -1.954686,0.8873 -2.061341,0.99307 -1.372927,1.3615 0.410517,0.2197 1.103584,0.39946 1.54015,0.39946 1.220107,0 3.755778,1.36207 4.511538,2.42344 0.372748,0.52347 0.784779,1.52244 0.915627,2.21992 0.290591,1.54898 -0.230265,2.62657 -2.44481,5.05803 -0.883591,0.97013 -1.690006,2.01628 -1.79203,2.32476 -0.170635,0.51594 -1.007699,1.03629 -2.819639,1.75281 -1.333303,0.52724 -2.516624,0.56078 -4.607677,0.1306 z"
           style="fill:#2d51a3;fill-opacity:0.99607843;stroke-width:0.35277778"
           id="path4793" />
        <path
           inkscape:connector-curvature="0"
           d="m 70.455295,99.383678 2.584336,1.474052 -0.909796,1.62003 c -0.500388,0.89102 -0.989596,1.57397 -1.087132,1.51766 -0.09753,-0.0563 0.208692,-0.71369 0.680501,-1.46086 l 0.857835,-1.35848 -1.896644,-0.94474 c -1.043157,-0.519621 -2.011764,-0.914357 -2.152461,-0.877195 -0.1407,0.03715 -0.346975,-0.272657 -0.458394,-0.688479 -0.17153,-0.640157 0.193532,-0.530102 2.381755,0.718012 z m -6.023694,-3.1319 c 0.952075,0.548381 1.687415,1.142712 1.634092,1.320749 -0.13702,0.457441 -1.646333,-0.380503 -2.579137,-1.43189 -0.743306,-0.837796 -0.69197,-0.831757 0.945045,0.111141 z M 55.70199,91.340732 c 3.658845,1.807965 5.191705,2.754635 4.681642,2.891306 -0.215765,0.05781 -0.746201,-0.210932 -1.178746,-0.597212 -0.432546,-0.386281 -0.953026,-0.657694 -1.156623,-0.60314 -0.203596,0.05455 -1.16825,-0.395967 -2.143672,-1.001157 C 52.75463,90.076172 52.68872,89.851767 55.701985,91.340733 Z M 44.178928,84.756493 c 0.162885,0.02332 1.964773,1.074433 4.004189,2.335824 4.072168,2.518654 3.322954,2.354483 -1.272567,-0.278851 -2.658677,-1.523475 -3.516285,-2.169277 -2.731622,-2.056973 z M 39.865932,82.45935 c 0.158379,-0.168175 1.153112,0.214593 2.210512,0.850598 2.013474,1.211064 1.38993,1.28742 -1.065387,0.13046 -0.794091,-0.374175 -1.304691,-0.811628 -1.145125,-0.981058 z m -19.504247,39.8715 c 1.120508,0.22764 25.79695,14.38596 27.304151,15.66599 l 0.980706,0.83289 -1.381652,-0.72546 c -0.759902,-0.399 -5.799926,-3.30991 -11.200036,-6.4687 -5.400109,-3.1588 -11.272808,-6.57107 -13.050455,-7.58284 -1.777646,-1.01176 -2.971365,-1.78661 -2.652714,-1.72188 z m -7.084676,-7.84575 c 0.732407,-1.12152 1.681062,-2.42181 2.108139,-2.88953 0.427077,-0.46772 0.724818,-1.04327 0.661656,-1.279 -0.06317,-0.23573 3.158749,-6.05173 7.159803,-12.924441 8.083329,-13.884925 10.565322,-17.942852 11.054776,-18.074001 0.181546,-0.04865 1.20681,0.449036 2.278367,1.105958 2.015422,1.235569 1.384402,1.160928 -1.066127,-0.126108 l -1.396169,-0.733276 -0.985846,2.066214 c -0.54221,1.136415 -1.724792,3.257834 -2.627954,4.714265 -0.903163,1.456429 -2.199314,3.672782 -2.880342,4.92523 -1.757713,3.232528 -8.242047,14.465609 -11.837149,20.505999 -1.676818,2.81733 -3.031871,5.18546 -3.011225,5.26251 0.09906,0.36969 3.000435,2.66982 3.274922,2.59627 0.418043,-0.11202 2.913917,1.41839 3.032021,1.85916 0.05114,0.19086 0.0029,0.30266 -0.107116,0.24845 -3.027234,-1.49113 -6.710514,-3.91292 -6.834585,-4.4938 -0.08651,-0.40516 0.432471,-1.62409 1.176829,-2.7639 z"
           style="fill:#2d51a3;fill-opacity:0.99607843;stroke-width:0.35277778"
           id="path4773" />
      </g>
      <text
         id="text4778"
         y="122.74026"
         x="57.730221"
         style="font-style:normal;font-variant:normal;font-weight:normal;font-stretch:normal;font-size:11.28888893px;line-height:125%;font-family:Expansiva;-inkscape-font-specification:'Expansiva, Normal';font-variant-ligatures:normal;font-variant-caps:normal;font-variant-numeric:normal;font-feature-settings:normal;text-align:start;letter-spacing:0px;word-spacing:0px;writing-mode:lr-tb;text-anchor:start;fill:#2d51a3;fill-opacity:0.99607843;stroke:none;stroke-width:0.26458332px;stroke-linecap:butt;stroke-linejoin:miter;stroke-opacity:1"
         xml:space="preserve"><tspan
           style="font-style:normal;font-variant:normal;font-weight:normal;font-stretch:normal;font-size:11.28888893px;font-family:Expansiva;-inkscape-font-specification:'Expansiva, Normal';font-variant-ligatures:normal;font-variant-caps:normal;font-variant-numeric:normal;font-feature-settings:normal;text-align:start;writing-mode:lr-tb;text-anchor:start;fill:#2d51a3;fill-opacity:0.99607843;stroke-width:0.26458332px"
           y="122.74026"
           x="57.730221"
           id="tspan4776"
           sodipodi:role="line">BARTUS</tspan></text>
    </g>
  </g>
</svg>
